<svg width="281" height="201" xmlns="http://www.w3.org/2000/svg"><defs><linearGradient x1="114.858%" y1="-194.911%" x2="43.8%" y2="99.462%" id="a"><stop stop-color="#44C0FF" offset="0%"/><stop stop-color="#B9F9F0" stop-opacity="0" offset="100%"/></linearGradient><linearGradient x1="79.807%" y1="-62.553%" x2="47.15%" y2="72.731%" id="b"><stop stop-color="#44C0FF" offset="0%"/><stop stop-color="#B9F9F0" stop-opacity="0" offset="100%"/></linearGradient></defs><g fill="none" fill-rule="evenodd"><g fill-rule="nonzero"><path d="M252.422 100.9c-.198 55.32-41.294 100.1-91.96 100.1-50.789 0-91.961-44.995-91.961-100.5 0-4.756.302-9.434.887-14.014H40.6c-4.421 0-8.005-3.944-8.005-8.809 0-4.865 3.584-8.808 8.005-8.808h66.059c4.42 0 8.005-3.944 8.005-8.81 0-4.864-3.584-8.808-8.005-8.808H67.713c-4.421 0-8.005-3.944-8.005-8.809 0-4.865 3.584-8.809 8.005-8.809h24.095C108.65 12.995 133.168 0 160.462 0c39.582 0 73.324 27.33 86.286 65.665h26.247c4.421 0 8.005 3.944 8.005 8.81 0 4.864-3.584 8.808-8.005 8.808h-40.413c-4.42 0-8.004 3.944-8.004 8.809 0 4.865 3.584 8.808 8.004 8.808h19.84z" fill="url(#a)"/><path d="M7.284 69.055H21.94c4.023 0 7.284 3.589 7.284 8.016 0 4.426-3.261 8.015-7.284 8.015H7.284C3.26 85.086 0 81.497 0 77.07c0-4.427 3.261-8.016 7.284-8.016z" fill="url(#b)"/></g><path d="M75.15 41.221a3.148 3.148 0 0 1 3.14-3.135H218.4a3.148 3.148 0 0 1 3.14 3.135v10.09H75.15V41.22z" fill="#263238" fill-rule="nonzero"/><path d="M100.535 47.342a2.648 2.648 0 0 1-2.65-2.646 2.648 2.648 0 0 1 2.65-2.646 2.648 2.648 0 0 1 2.65 2.646 2.648 2.648 0 0 1-2.65 2.646zm0-4.738a2.093 2.093 0 0 0-2.095 2.092c0 1.155.938 2.092 2.095 2.092a2.093 2.093 0 0 0 2.095-2.092 2.098 2.098 0 0 0-2.095-2.092zM92.12 47.342a2.648 2.648 0 0 1-2.645-2.65 2.648 2.648 0 0 1 2.652-2.642 2.644 2.644 0 1 1-.007 5.292zm0-4.738a2.093 2.093 0 0 0-2.09 2.095 2.093 2.093 0 0 0 2.097 2.089 2.093 2.093 0 0 0 2.093-2.092 2.098 2.098 0 0 0-2.1-2.092zM83.71 47.342a2.648 2.648 0 0 1-2.645-2.65 2.648 2.648 0 0 1 2.652-2.642 2.644 2.644 0 1 1-.007 5.292zm0-4.738a2.093 2.093 0 0 0-2.095 2.092c0 1.155.938 2.092 2.095 2.092a2.093 2.093 0 0 0 2.095-2.092 2.098 2.098 0 0 0-2.095-2.092z" fill="#F0F0F0" fill-rule="nonzero"/><path d="M218.4 147.58H78.29a3.148 3.148 0 0 1-3.14-3.134V51.31h146.39v93.135a3.148 3.148 0 0 1-3.14 3.135z" stroke="#979797" fill="#EDEDED" fill-rule="nonzero"/><path fill="#FFF" fill-rule="nonzero" d="M76.04 53.992h144.61v82.541H76.04z"/><g transform="translate(183 104)" fill-rule="nonzero"><circle fill="#EB8181" transform="rotate(-45 37.5 37.5)" cx="37.5" cy="37.5" r="26.517"/><circle fill="#FFF" transform="rotate(-45 37.624 37.467)" cx="37.624" cy="37.467" r="24.174"/><path d="M54.946 44.82c-3.49 6.515-10.224 10.573-17.545 10.573-7.32 0-14.053-4.058-17.544-10.572a31.309 31.309 0 0 1 35.089 0z" fill="#87D5FA"/><circle fill="#87D5FA" cx="37.72" cy="28.598" r="8.932"/><ellipse fill="#FFF" transform="rotate(-80.78 14.43 51.028)" cx="14.431" cy="51.028" rx="8.743" ry="8.756"/><path d="m18.407 53.848-2.824-2.824 2.82-2.82a.82.82 0 0 0-1.16-1.16l-2.819 2.82-2.824-2.823a.82.82 0 1 0-1.158 1.157l2.824 2.824-2.82 2.82a.818.818 0 0 0 .369 1.37.818.818 0 0 0 .791-.21l2.82-2.82 2.824 2.823a.82.82 0 1 0 1.157-1.157z" fill="#EB8181"/></g><g opacity=".2"><path fill="#EB8181" d="M123.784 114.562h-25.41V95.046h25.41z"/><path fill="#EB8181" d="m123.784 95.046-4.694 4.36H94.112l4.262-4.36h25.41"/><path d="M123.784 95.046 98.374 95h-.02l-.013.014-4.219 4.314-.044.044-.078.08h.112l24.978-.018h.012l.008-.008 4.674-4.38-4.713 4.339.02-.008-24.979-.019.034.08.044-.045 4.217-4.315-.033.014 25.41-.046M114.34 104.045c.27 0 .515.241.52.509a.539.539 0 0 1-.501.526.539.539 0 0 1-.538-.489.538.538 0 0 1 .48-.544M108.341 104.045c.269 0 .514.241.519.509a.539.539 0 0 1-.5.526.539.539 0 0 1-.539-.489.538.538 0 0 1 .481-.544M108.303 108.717c.027.01.067-.489.503-1.122.214-.314.534-.647.96-.917a3.1 3.1 0 0 1 1.54-.486c.58-.01 1.127.154 1.564.4.44.247.778.562 1.009.864.47.609.537 1.106.564 1.093a.297.297 0 0 0-.015-.085c-.015-.055-.027-.14-.067-.24a2.89 2.89 0 0 0-.429-.808 3.302 3.302 0 0 0-1.02-.898 3.138 3.138 0 0 0-1.61-.42c-.6.022-1.152.226-1.583.507a3.294 3.294 0 0 0-.969.953c-.213.325-.33.62-.384.83-.034.103-.041.187-.053.242a.305.305 0 0 0-.01.087" fill="#1A282B"/><path d="M98.4 100.934h19.723l5.603-5.673-4.657 3.339-1.099.826-.01.008h-.014l-19.573.011c.01.201.019.726.027 1.49" fill="#73242A"/><path d="M98.556 114.517c.026 0 .047-3.395.047-7.58 0-4.189-.021-7.582-.047-7.582s-.048 3.393-.048 7.581c0 4.186.022 7.581.048 7.581" fill="#1A282B"/><path fill="#F8F7F5" d="M96.806 112.614h-2.24v-2.521h2.24z"/><path fill="#EB8181" d="m123.784 95.046 5.216 4.36h-5.216v-4.36"/><path fill="#8F2C34" d="M123.784 99.405H129l-5.216-4.359v4.36"/><path fill="#CFEEFD" d="M126.235 137H97.021v-22.438h29.214z"/><path fill="#BDDBEA" d="M126.235 137H97.021v-22.438h29.214z"/><path d="M104.34 136.842c.026 0 .048-5.002.048-11.17 0-6.17-.022-11.17-.048-11.17-.026 0-.047 5-.047 11.17 0 6.168.021 11.17.047 11.17" fill="#1A282B"/><path fill="#F8F7F5" d="M101.737 134.414h-2.24v-2.521h2.24z"/><path fill="#FFF" d="M117.323 121.809h-3.319v-4.788h3.319z"/></g><g opacity=".2"><path fill="#EB8181" d="M171.216 114.562h25.41V95.046h-25.41z"/><path fill="#EB8181" d="m171.216 95.046 4.694 4.36h24.978l-4.262-4.36h-25.41"/><path d="m171.216 95.046 25.41-.046h.02l.013.014 4.219 4.314.044.044.078.08h-.112l-24.978-.018h-.012l-.008-.008-4.674-4.38 4.713 4.339-.02-.008 24.979-.019-.034.08-.044-.045-4.217-4.315.033.014-25.41-.046M180.66 104.045a.539.539 0 0 0-.52.509.539.539 0 0 0 .501.526.539.539 0 0 0 .538-.489.538.538 0 0 0-.48-.544M186.659 104.045a.539.539 0 0 0-.519.509.539.539 0 0 0 .5.526.539.539 0 0 0 .539-.489.538.538 0 0 0-.481-.544M186.697 108.717c-.027.01-.067-.489-.503-1.122a3.319 3.319 0 0 0-.96-.917 3.1 3.1 0 0 0-1.54-.486 3.103 3.103 0 0 0-1.564.4c-.44.247-.778.562-1.009.864-.47.609-.537 1.106-.564 1.093a.297.297 0 0 1 .015-.085c.015-.055.027-.14.067-.24a2.89 2.89 0 0 1 .429-.808c.23-.313.57-.641 1.02-.898a3.138 3.138 0 0 1 1.61-.42c.6.022 1.152.226 1.583.507.435.28.757.627.969.953.213.325.33.62.384.83.034.103.041.187.053.242.01.056.014.086.01.087" fill="#1A282B"/><path d="M196.6 100.934h-19.723l-5.603-5.673 4.657 3.339 1.099.826.01.008h.014l19.573.011c-.01.201-.019.726-.027 1.49" fill="#73242A"/><path d="M196.444 114.517c-.026 0-.047-3.395-.047-7.58 0-4.189.021-7.582.047-7.582s.048 3.393.048 7.581c0 4.186-.022 7.581-.048 7.581" fill="#1A282B"/><path fill="#F8F7F5" d="M198.194 112.614h2.24v-2.521h-2.24z"/><path fill="#EB8181" d="M171.216 95.046 166 99.406h5.216v-4.36"/><path fill="#8F2C34" d="M171.216 99.405H166l5.216-4.359v4.36"/><path fill="#CFEEFD" d="M168.765 137h29.214v-22.438h-29.214z"/><path fill="#BDDBEA" d="M168.765 137h29.214v-22.438h-29.214z"/><path d="M190.66 136.842c-.026 0-.048-5.002-.048-11.17 0-6.17.022-11.17.048-11.17.026 0 .047 5 .047 11.17 0 6.168-.021 11.17-.047 11.17" fill="#1A282B"/><path fill="#F8F7F5" d="M193.263 134.414h2.24v-2.521h-2.24z"/><path fill="#FFF" d="M177.677 121.809h3.319v-4.788h-3.319z"/></g><path fill="#EB8181" d="M127.373 99.224h42.093v-32.51h-42.093z"/><path fill="#EB8181" d="m127.373 66.714 7.775 7.262h41.38l-7.062-7.262h-42.093"/><path d="m127.373 66.714 42.093-.077h.033l.022.024 6.99 7.185.072.075.13.133h-.186l-41.379-.031h-.018l-.014-.013-7.743-7.296 7.807 7.227-.032-.013 41.38-.03-.057.132-.072-.075-6.988-7.187.055.023-42.093-.077M143.016 81.705c-.445 0-.852.401-.86.847-.007.446.386.86.83.877.446.016.867-.37.891-.815.025-.445-.351-.874-.796-.907M152.955 81.705c-.445 0-.852.401-.86.847-.007.446.385.86.83.877.446.016.867-.37.891-.815.025-.445-.352-.874-.796-.907M153.02 89.487c-.046.018-.112-.814-.834-1.87a5.512 5.512 0 0 0-1.59-1.527c-.7-.45-1.59-.774-2.551-.809a5.119 5.119 0 0 0-2.592.668 5.51 5.51 0 0 0-1.672 1.438c-.778 1.014-.89 1.841-.934 1.82a.497.497 0 0 1 .025-.142c.025-.09.045-.231.11-.4.109-.342.33-.823.711-1.345a5.48 5.48 0 0 1 1.689-1.496 5.177 5.177 0 0 1 2.667-.699c.995.036 1.91.375 2.624.844a5.472 5.472 0 0 1 1.604 1.587c.353.542.547 1.034.637 1.383.056.171.068.312.088.404a.511.511 0 0 1 .017.144" fill="#1A282B"/><path d="M169.424 76.523H136.75l-9.281-9.452 7.715 5.563 1.82 1.376.017.013h.023l32.425.02c-.017.334-.032 1.208-.045 2.48" fill="#73242A"/><path d="M169.166 99.15c-.043 0-.078-5.656-.078-12.63 0-6.976.035-12.629.078-12.629s.078 5.653.078 12.63c0 6.973-.035 12.628-.078 12.628" fill="#1A282B"/><path fill="#F8F7F5" d="M172.065 95.98h3.71v-4.2h-3.71z"/><path fill="#EB8181" d="m127.373 66.714-8.641 7.262h8.641v-7.262"/><path fill="#8F2C34" d="M127.373 73.976h-8.641l8.641-7.262v7.262"/><path fill="#CFEEFD" d="M123.312 136.602h48.397V99.224h-48.397z"/><path fill="#BDDBEA" d="M123.312 136.602h48.397V99.224h-48.397z"/><path d="M159.583 136.338c-.043 0-.078-8.332-.078-18.606 0-10.28.035-18.61.078-18.61s.078 8.33.078 18.61c0 10.274-.035 18.606-.078 18.606" fill="#1A282B"/><path fill="#F8F7F5" d="M163.895 132.294h3.71v-4.2h-3.71z"/><path fill="#FFF" d="M138.077 111.296h5.496v-7.976h-5.496z"/></g></svg>